<?xml version="1.0" encoding="UTF-8" standalone="no"?>
<svg
   height="144"
   width="144"
   version="1.1"
   id="svg152"
   sodipodi:docname="rust-logo-blk.svg"
   inkscape:version="1.2.2 (b0a8486541, 2022-12-01, custom)"
   xmlns:inkscape="http://www.inkscape.org/namespaces/inkscape"
   xmlns:sodipodi="http://sodipodi.sourceforge.net/DTD/sodipodi-0.dtd"
   xmlns="http://www.w3.org/2000/svg"
   xmlns:svg="http://www.w3.org/2000/svg">
  <defs
     id="defs156" />
  <sodipodi:namedview
     id="namedview154"
     pagecolor="#505050"
     bordercolor="#ffffff"
     borderopacity="1"
     inkscape:showpageshadow="0"
     inkscape:pageopacity="0"
     inkscape:pagecheckerboard="1"
     inkscape:deskcolor="#505050"
     showgrid="false"
     inkscape:zoom="5.4722222"
     inkscape:cx="92.832487"
     inkscape:cy="93.472081"
     inkscape:window-width="1846"
     inkscape:window-height="1016"
     inkscape:window-x="0"
     inkscape:window-y="0"
     inkscape:window-maximized="1"
     inkscape:current-layer="svg152" />
  <path
     id="path148"
     d="m 71.050781,23.679688 c -26.059974,0 -47.271484,21.219557 -47.271484,47.269531 0,26.049974 21.22151,47.271481 47.271484,47.271481 26.049974,0 47.269529,-21.221507 47.269529,-47.271481 0,-26.049974 -21.219555,-47.269531 -47.269529,-47.269531 z m -0.07031,4.201171 c 1.680759,0.04353 3.020091,1.422632 3.019531,3.109375 0,4.146661 -6.220703,4.146661 -6.220703,0 -7.34e-4,-1.753374 1.448533,-3.160116 3.201172,-3.109375 z M 63.949219,33 l 4.791015,5.019531 c 1.079999,1.129999 2.870002,1.179843 4,0.08984 L 78.099609,33 c 11.050211,2.069742 20.63261,8.893779 26.201171,18.660156 l -3.66992,8.279297 c -0.63,1.429999 0.0195,3.110001 1.43945,3.75 l 7.06055,3.130859 c 1.99583,11.908015 -2.45444,24.848782 -10.800782,30.609376 l -6.570312,-1.410157 c -1.529999,-0.329999 -3.039141,0.649689 -3.369141,2.179688 l -1.560547,7.281251 c -10.151151,4.59843 -21.802685,4.54327 -31.910156,-0.15039 L 53.359375,98.050781 C 53.029375,96.520783 51.529998,95.539141 50,95.869141 L 43.570312,97.25 C 36.199679,90.737438 31.346296,76.693316 33,66.490234 l 6.699219,-2.980468 c 1.429998,-0.64 2.081405,-2.310236 1.441406,-3.740235 L 35.699,51.66 C 40.594422,43.595481 54.229189,34.174752 63.949219,33 Z M 33.900391,56.019531 c 1.682357,0.04871 3.020236,1.428266 3.019531,3.111328 0,4.146661 -6.220703,4.146661 -6.220703,0 -7.34e-4,-1.753374 1.448532,-3.162069 3.201172,-3.111328 z m 74.150389,0.140625 c 1.68236,0.04871 3.02023,1.426313 3.01953,3.109375 0,4.146661 -6.2207,4.146661 -6.2207,0 -7.3e-4,-1.753374 1.44853,-3.160116 3.20117,-3.109375 z M 47.949219,99.810547 c 1.682357,0.04871 3.022189,1.426313 3.021484,3.109373 0,4.14666 -6.220703,4.14666 -6.220703,0 -7.34e-4,-1.75338 1.44658,-3.160114 3.199219,-3.109373 z M 94,99.949219 c 1.682357,0.04871 3.020236,1.428271 3.019531,3.111331 0,4.14665 -6.21875,4.14665 -6.21875,0 -7.34e-4,-1.75338 1.44658,-3.162072 3.199219,-3.111331 z"
     sodipodi:nodetypes="ssssscccccccccccccccccccccccccsccssccssccssccs" />
  <path
     d="m115.68 70.95a44.63 44.63 0 0 1 -44.63 44.63 44.63 44.63 0 0 1 -44.63-44.63 44.63 44.63 0 0 1 44.63-44.63 44.63 44.63 0 0 1 44.63 44.63zm-.84-4.31 6.96 4.31-6.96 4.31 5.98 5.59-7.66 2.87 4.78 6.65-8.09 1.32 3.4 7.46-8.19-.29 1.88 7.98-7.98-1.88.29 8.19-7.46-3.4-1.32 8.09-6.65-4.78-2.87 7.66-5.59-5.98-4.31 6.96-4.31-6.96-5.59 5.98-2.87-7.66-6.65 4.78-1.32-8.09-7.46 3.4.29-8.19-7.98 1.88 1.88-7.98-8.19.29 3.4-7.46-8.09-1.32 4.78-6.65-7.66-2.87 5.98-5.59-6.96-4.31 6.96-4.31-5.98-5.59 7.66-2.87-4.78-6.65 8.09-1.32-3.4-7.46 8.19.29-1.88-7.98 7.98 1.88-.29-8.19 7.46 3.4 1.32-8.09 6.65 4.78 2.87-7.66 5.59 5.98 4.31-6.96 4.31 6.96 5.59-5.98 2.87 7.66 6.65-4.78 1.32 8.09 7.46-3.4-.29 8.19 7.98-1.88-1.88 7.98 8.19-.29-3.4 7.46 8.09 1.32-4.78 6.65 7.66 2.87z"
     fill-rule="evenodd"
     stroke="#000"
     stroke-linecap="round"
     stroke-linejoin="round"
     stroke-width="3"
     id="path150" />
</svg>
